<svg width="866" height="180" viewBox="0 0 866 180" fill="none" xmlns="http://www.w3.org/2000/svg">
<g clip-path="url(#clip0_22_270)">
<circle cx="90.0005" cy="90" r="74.75" stroke="#075056" stroke-width="55.1613" stroke-dasharray="1.63 4.88"/>
<rect x="57.4995" y="-7.5" width="65" height="65" fill="#075056"/>
<path d="M57.4989 121.048L85.1653 136.014C88.1819 137.646 91.8181 137.646 94.8346 136.014L122.499 121.048V186.048H57.4989V121.048Z" fill="#075056"/>
<rect x="-7.5" y="57.5001" width="65" height="65" fill="#075056"/>
<rect x="122.5" y="57.5001" width="65" height="65" fill="#075056"/>
<g clip-path="url(#clip1_22_270)">
<rect x="72.4783" y="84.1935" width="5.70458" height="5.70458" fill="#075056"/>
<rect x="66.7742" y="89.8982" width="5.70458" height="5.70458" fill="#075056"/>
<rect width="5.70458" height="5.70458" transform="matrix(-1 0 0 1 107.522 84.1935)" fill="#075056"/>
<rect x="78.1835" y="89.8982" width="5.70458" height="5.70458" fill="#075056"/>
<rect width="5.70458" height="5.70458" transform="matrix(-1 0 0 1 101.817 89.8982)" fill="#075056"/>
<rect width="5.70458" height="5.70458" transform="matrix(-1 0 0 1 113.226 89.8982)" fill="#075056"/>
</g>
</g>
<path d="M823.496 118.792V82.99H815.882V68.086L818.96 67.438C825.926 65.98 828.518 62.416 830.138 55.774L832.406 46.378H847.472V65.98H861.566V82.99H847.472V113.608C847.472 117.82 849.416 119.926 853.304 119.926C856.22 119.926 858.812 119.116 863.186 117.334V133.858C857.516 137.584 851.36 139.366 844.07 139.366C832.892 139.366 823.496 133.696 823.496 118.792Z" fill="#075056"/>
<path d="M779.864 120.898C786.668 120.898 789.26 114.904 789.26 107.614V96.598C789.26 89.308 786.668 83.314 779.864 83.314C773.06 83.314 770.468 89.308 770.468 96.598V107.614C770.468 114.904 773.06 120.898 779.864 120.898ZM779.864 139.69C758.804 139.69 746.33 125.11 746.33 103.24V100.972C746.33 79.102 758.804 64.522 779.864 64.522C800.924 64.522 813.398 79.102 813.398 100.972V103.24C813.398 125.11 800.924 139.69 779.864 139.69Z" fill="#075056"/>
<path d="M707.881 120.898C714.685 120.898 717.277 114.904 717.277 107.614V96.598C717.277 89.308 714.685 83.314 707.881 83.314C701.077 83.314 698.485 89.308 698.485 96.598V107.614C698.485 114.904 701.077 120.898 707.881 120.898ZM707.881 139.69C686.821 139.69 674.347 125.11 674.347 103.24V100.972C674.347 79.102 686.821 64.522 707.881 64.522C728.941 64.522 741.415 79.102 741.415 100.972V103.24C741.415 125.11 728.941 139.69 707.881 139.69Z" fill="#075056"/>
<path d="M645.401 106.156V98.056C645.401 88.66 641.999 83.8 635.357 83.8C628.715 83.8 625.313 88.984 625.313 96.436V107.776C625.313 115.228 628.715 120.412 635.357 120.412C641.999 120.412 645.401 115.552 645.401 106.156ZM625.313 130.132L622.721 138.232H601.013V36.172H625.313V74.08C629.201 68.086 635.195 64.522 644.429 64.522C661.439 64.522 669.539 77.806 669.539 99.19V105.022C669.539 126.406 661.439 139.69 644.429 139.69C635.195 139.69 629.201 136.126 625.313 130.132Z" fill="#075056"/>
<path d="M588.624 88.174V90.28C588.624 105.184 575.502 113.932 558.33 113.932C554.118 113.932 550.068 113.446 546.504 112.474C546.18 113.122 546.018 113.77 546.018 114.58C546.018 117.172 547.8 119.116 551.364 119.116H572.262C588.138 119.116 595.428 126.73 595.428 139.69C595.428 157.672 579.066 165.61 557.196 165.61C538.728 165.61 523.662 160.912 523.662 148.114C523.662 141.634 528.36 136.612 535.812 135.802C530.952 134.02 527.226 129.16 527.226 122.356C527.226 115.876 530.628 111.502 537.108 107.938C531.438 103.888 528.036 97.894 528.036 90.28V88.174C528.036 73.27 541.158 64.522 558.33 64.522C566.106 64.522 573.072 66.304 578.418 69.706C582.144 64.198 588.624 60.472 595.104 60.472V78.778C592.674 78.778 589.758 79.102 587.004 79.75C587.976 82.342 588.624 85.096 588.624 88.174ZM544.074 144.388C544.074 148.276 548.448 150.382 557.196 150.382C567.888 150.382 573.72 148.6 573.72 144.226C573.72 140.986 571.452 139.69 568.05 139.69H549.744C545.856 139.69 544.074 141.472 544.074 144.388ZM551.364 88.336V90.118C551.364 95.464 553.632 98.704 558.33 98.704C563.028 98.704 565.296 95.464 565.296 90.118V88.336C565.296 82.99 563.028 79.75 558.33 79.75C553.632 79.75 551.364 82.99 551.364 88.336Z" fill="#075056"/>
<path d="M477.393 99.19V138.232H453.093V65.98H477.393V74.242C480.633 68.896 487.437 64.522 496.995 64.522C512.709 64.522 519.351 74.89 519.351 88.984V138.232H495.051V97.084C495.051 89.794 493.755 84.61 486.951 84.61C479.337 84.61 477.393 91.252 477.393 99.19Z" fill="#075056"/>
<path d="M417.814 65.98H442.114V138.232H417.814V65.98ZM417.814 58.69V36.172H442.114V58.69H417.814Z" fill="#075056"/>
<path d="M412.301 66.466L411.329 88.66C408.089 87.688 405.659 87.364 402.743 87.364C393.185 87.364 388.325 92.224 388.325 103.402V138.232H364.025V65.98H388.325V77.32C391.241 68.41 397.397 65.008 405.335 65.008C408.251 65.008 410.519 65.494 412.301 66.466Z" fill="#075056"/>
<path d="M316.93 118.792V82.99H309.316V68.086L312.394 67.438C319.36 65.98 321.952 62.416 323.572 55.774L325.84 46.378H340.906V65.98H355V82.99H340.906V113.608C340.906 117.82 342.85 119.926 346.738 119.926C349.654 119.926 352.246 119.116 356.62 117.334V133.858C350.95 137.584 344.794 139.366 337.504 139.366C326.326 139.366 316.93 133.696 316.93 118.792Z" fill="#075056"/>
<path d="M232.972 66.466C232.972 47.512 246.58 34.39 267.964 34.39C292.264 34.39 304.9 48.484 304.9 68.896V71.488H282.22V69.868C282.22 60.148 277.684 53.83 267.802 53.83C261.16 53.83 257.11 57.718 257.11 63.55C257.11 68.248 259.864 71.164 265.21 72.946L280.276 77.968C296.8 83.476 306.52 91.576 306.52 107.938C306.52 128.836 291.13 140.014 270.556 140.014C245.932 140.014 232 126.406 232 105.67V103.402H254.842V104.86C254.842 114.58 260.188 120.574 270.394 120.574C277.36 120.574 281.734 117.01 281.734 111.178C281.734 105.832 278.818 103.24 272.662 101.296L257.11 96.436C243.34 92.062 232.972 84.286 232.972 66.466Z" fill="#075056"/>
<defs>
<clipPath id="clip0_22_270">
<rect width="180" height="180" rx="90" fill="white"/>
</clipPath>
<clipPath id="clip1_22_270">
<rect width="46.4516" height="46.4516" fill="white" transform="translate(66.7742 66.7742)"/>
</clipPath>
</defs>
</svg>
