<svg width="149" height="28" viewBox="0 0 149 28" fill="none" xmlns="http://www.w3.org/2000/svg">
<rect y="0.692261" width="24.6154" height="24.6154" rx="5.62637" fill="#00C853"/>
<path d="M10.0398 10.5342H17.6267V21.4395H14.5916V15.8809L9.82397 20.6484L7.67847 18.5029L12.6121 13.5693H7.00562V4.56055H10.0398V10.5342Z" fill="white"/>
<path d="M144.757 22.4438C143.608 22.4438 142.681 22.0992 141.976 21.4099C141.286 20.7043 140.942 19.7771 140.942 18.6284V11.613H138.628V8.41301H140.942V4.7207H144.929V8.41301H147.785V11.613H144.929V17.9392C144.929 18.251 145.028 18.5053 145.225 18.7022C145.422 18.8992 145.668 18.9976 145.963 18.9976H148.203V22.4438H144.757Z" fill="#E2E2E2"/>
<path d="M89.0731 21.287C88.0064 21.287 87.0382 21.0163 86.1685 20.4747C85.3151 19.9332 84.6341 19.1701 84.1254 18.1855C83.6167 17.1845 83.3623 16.0111 83.3623 14.6655C83.3623 13.3527 83.6249 12.2039 84.15 11.2193C84.6751 10.2183 85.389 9.43882 86.2915 8.88087C87.1941 8.32292 88.2033 8.04395 89.3192 8.04395C90.1397 8.04395 90.8618 8.20805 91.4854 8.53625C92.1254 8.86446 92.6669 9.31574 93.11 9.8901L93.2823 8.41318H96.8023V21.1639C96.8023 22.3455 96.5151 23.3957 95.9408 24.3147C95.3664 25.2337 94.5623 25.9475 93.5285 26.4563C92.511 26.9814 91.3049 27.2439 89.91 27.2439C88.8433 27.2439 87.8505 27.0306 86.9315 26.6039C86.0126 26.1773 85.2659 25.5783 84.6915 24.807C84.1336 24.0357 83.8382 23.1414 83.8054 22.1239H87.2762C87.4731 22.7968 87.7849 23.2809 88.2115 23.5763C88.6382 23.888 89.2044 24.0439 89.91 24.0439C90.7797 24.0439 91.4854 23.7896 92.0269 23.2809C92.5685 22.7886 92.8392 22.0829 92.8392 21.1639V19.4409C92.4782 19.9824 91.9941 20.4255 91.3869 20.7701C90.7797 21.1147 90.0085 21.287 89.0731 21.287ZM90.0577 18.1609C90.9274 18.1609 91.6085 17.8655 92.1008 17.2747C92.5931 16.6675 92.8392 15.8716 92.8392 14.887C92.8392 13.9188 92.5931 13.1065 92.1008 12.4501C91.6085 11.7937 90.9274 11.4655 90.0577 11.4655C89.2044 11.4655 88.5479 11.7855 88.0885 12.4255C87.6454 13.0655 87.4238 13.886 87.4238 14.887C87.4238 15.8716 87.6454 16.6675 88.0885 17.2747C88.5315 17.8655 89.1879 18.1609 90.0577 18.1609Z" fill="#E2E2E2"/>
<path d="M69.5732 22.4439V14.1978C69.5732 12.9342 69.8276 11.8429 70.3363 10.9239C70.8614 10.005 71.5999 9.29933 72.5517 8.80702C73.5035 8.2983 74.6276 8.04395 75.924 8.04395C77.2204 8.04395 78.3445 8.2983 79.2963 8.80702C80.2481 9.29933 80.9784 10.005 81.4871 10.9239C82.0122 11.8429 82.2748 12.9342 82.2748 14.1978V22.4439H78.2871V14.247C78.2871 13.3609 78.0655 12.6798 77.6225 12.2039C77.1958 11.728 76.6297 11.4901 75.924 11.4901C75.2348 11.4901 74.6686 11.728 74.2256 12.2039C73.7825 12.6798 73.5609 13.3609 73.5609 14.247V22.4439H69.5732Z" fill="#E2E2E2"/>
<path d="M111.853 17.161L111.837 14.1978C111.837 12.9342 112.092 11.8429 112.6 10.9239C113.125 10.005 113.864 9.29933 114.816 8.80702C115.767 8.2983 116.892 8.04395 118.188 8.04395C119.484 8.04395 120.608 8.2983 121.56 8.80702C122.512 9.29933 123.242 10.005 123.751 10.9239C124.276 11.8429 124.539 12.9342 124.539 14.1978L124.511 17.161L120.551 17.161V14.247C120.551 13.3609 120.329 12.6798 119.886 12.2039C119.46 11.728 118.894 11.4901 118.188 11.4901C117.499 11.4901 116.933 11.728 116.489 12.2039C116.046 12.6798 115.825 13.3609 115.825 14.247V17.161H111.853Z" fill="#E2E2E2"/>
<path d="M111.837 14.3049V16.6811C111.837 17.9447 112.092 19.036 112.6 19.955C113.125 20.8739 113.864 21.5796 114.816 22.0719C115.767 22.5806 116.892 22.835 118.188 22.835C119.484 22.835 120.608 22.5806 121.56 22.0719C122.512 21.5796 123.242 20.8739 123.751 19.955C124.276 19.036 124.539 17.9447 124.539 16.6811V14.3049H120.551V16.6319C120.551 17.518 120.329 18.1991 119.886 18.675C119.46 19.1509 118.894 19.3888 118.188 19.3888C117.499 19.3888 116.933 19.1509 116.489 18.675C116.046 18.1991 115.825 17.518 115.825 16.6319V14.3049H111.837Z" fill="#E2E2E2"/>
<path fill-rule="evenodd" clip-rule="evenodd" d="M98.0965 14.2261L98.0962 16.6023C98.0962 16.6584 98.0967 16.7142 98.0977 16.7696H98.1097L98.0965 14.2261Z" fill="#E2E2E2"/>
<path fill-rule="evenodd" clip-rule="evenodd" d="M98.11 16.7697L98.0967 14.2261L98.0964 16.6023C98.0964 16.6585 98.0969 16.7142 98.0979 16.7697H98.11Z" fill="#E2E2E2"/>
<path d="M104.176 8.11705C103.351 8.36891 102.643 8.78264 102.05 9.35825C102.03 9.39685 102.013 9.43574 101.998 9.47482L101.998 9.40913L102 9.20712L102.009 8.05339V4.05139H98.0957L98.0973 14.4408L98.1097 16.7696H98.0977C98.1193 17.9625 98.3731 18.998 98.8592 19.8761C99.3844 20.7951 100.123 21.5007 101.075 21.9931C102.026 22.5018 103.151 22.7561 104.447 22.7561C105.743 22.7561 106.867 22.5018 107.819 21.9931C108.771 21.5007 109.501 20.7951 110.01 19.8761C110.078 19.7568 110.142 19.6347 110.201 19.5096C110.447 18.9916 110.617 18.4239 110.711 17.8063C110.769 17.4241 110.798 17.0227 110.798 16.6023V14.2261L110.797 14.1187C110.797 10.8984 108.249 7.25952 104.176 8.11705ZM102.084 15.4853V14.2261L102.084 14.168C102.084 13.2818 102.305 12.6008 102.748 12.1249C103.191 11.649 103.757 11.4111 104.447 11.4111C104.815 11.4111 105.145 11.4759 105.438 11.6056C105.451 11.6115 105.465 11.6177 105.478 11.6239C105.729 11.7419 105.951 11.9089 106.145 12.1249C106.588 12.6008 106.81 13.2818 106.81 14.168V16.6028C106.802 17.4647 106.58 18.1292 106.145 18.5961C105.719 19.072 105.153 19.31 104.447 19.31C103.758 19.31 103.192 19.072 102.748 18.5961C102.305 18.1202 102.084 17.4392 102.084 16.5531V16.2267V15.4853Z" fill="#E2E2E2"/>
<path d="M125.549 17.161L125.533 14.1978C125.533 12.9342 125.788 11.8429 126.296 10.9239C126.821 10.005 127.56 9.29933 128.512 8.80702C129.463 8.2983 130.588 8.04395 131.884 8.04395C133.18 8.04395 134.304 8.2983 135.256 8.80702C136.208 9.29933 136.938 10.005 137.447 10.9239C137.972 11.8429 138.235 12.9342 138.235 14.1978L138.207 17.161L134.247 17.161V14.247C134.247 13.3609 134.026 12.6798 133.582 12.2039C133.156 11.728 132.59 11.4901 131.884 11.4901C131.195 11.4901 130.629 11.728 130.186 12.2039C129.742 12.6798 129.521 13.3609 129.521 14.247V17.161H125.549Z" fill="#E2E2E2"/>
<path d="M125.533 14.3049V16.6811C125.533 17.9447 125.788 19.036 126.297 19.955C126.822 20.8739 127.56 21.5796 128.512 22.0719C129.464 22.5806 130.588 22.835 131.884 22.835C133.181 22.835 134.305 22.5806 135.257 22.0719C136.208 21.5796 136.939 20.8739 137.447 19.955C137.972 19.036 138.235 17.9447 138.235 16.6811V14.3049H134.247V16.6319C134.247 17.518 134.026 18.1991 133.583 18.675C133.156 19.1509 132.59 19.3888 131.884 19.3888C131.195 19.3888 130.629 19.1509 130.186 18.675C129.743 18.1991 129.521 17.518 129.521 16.6319V14.3049H125.533Z" fill="#E2E2E2"/>
<path d="M65.988 6.88698C65.348 6.88698 64.8065 6.69826 64.3634 6.32082C63.9367 5.94339 63.7234 5.45108 63.7234 4.8439C63.7234 4.25313 63.9367 3.76903 64.3634 3.39159C64.8065 3.01416 65.348 2.82544 65.988 2.82544C66.6116 2.82544 67.1367 3.01416 67.5634 3.39159C68.0065 3.76903 68.228 4.25313 68.228 4.8439C68.228 5.45108 68.0065 5.94339 67.5634 6.32082C67.1367 6.69826 66.6116 6.88698 65.988 6.88698ZM63.9942 22.4439V8.41313H67.9818V22.4439H63.9942Z" fill="#E2E2E2"/>
<path d="M54.0347 22.4439V14.3209C54.0347 12.3024 54.5762 10.7516 55.6593 9.66856C56.7588 8.58548 58.3259 8.04395 60.3608 8.04395C60.5742 8.04395 60.9106 8.06036 61.3701 8.09318C61.8295 8.10959 62.289 8.16702 62.7485 8.26548V11.687C62.4367 11.6378 62.1413 11.5968 61.8624 11.5639C61.5834 11.5147 61.2716 11.4901 60.927 11.4901C60.4183 11.4901 59.9424 11.5639 59.4993 11.7116C59.0562 11.8593 58.6952 12.1383 58.4162 12.5486C58.1536 12.9588 58.0224 13.5578 58.0224 14.3455V22.4439H54.0347Z" fill="#E2E2E2"/>
<path d="M49.3443 22.4438C48.1956 22.4438 47.2684 22.0992 46.5628 21.4099C45.8735 20.7043 45.5289 19.7771 45.5289 18.6284V11.613H43.2151V8.41301H45.5289V4.7207H49.5166V8.41301H52.372V11.613H49.5166V17.9392C49.5166 18.251 49.6151 18.5053 49.812 18.7022C50.0089 18.8992 50.2551 18.9976 50.5505 18.9976H52.7905V22.4438H49.3443Z" fill="#E2E2E2"/>
<path d="M35.1715 22.813C33.7274 22.813 32.4146 22.5669 31.2331 22.0746C30.0679 21.5823 29.1326 20.8684 28.4269 19.933C27.7377 18.9812 27.3931 17.8161 27.3931 16.4377H31.7746C31.8567 17.3566 32.2013 18.0377 32.8085 18.4807C33.4156 18.9238 34.1705 19.1453 35.0731 19.1453C35.9592 19.1453 36.6895 18.9894 37.2638 18.6777C37.8382 18.3659 38.1254 17.931 38.1254 17.373C38.1254 16.8971 37.9531 16.5443 37.6085 16.3146C37.2638 16.0848 36.7387 15.8633 36.0331 15.65L32.0946 14.493C31.3233 14.2633 30.5931 13.9761 29.9038 13.6315C29.2146 13.2705 28.6567 12.7782 28.23 12.1546C27.8197 11.531 27.6146 10.6859 27.6146 9.61919C27.6146 8.38842 27.91 7.32996 28.5008 6.44381C29.0915 5.54124 29.9285 4.84381 31.0115 4.3515C32.0946 3.85919 33.3664 3.61304 34.8269 3.61304C36.9438 3.61304 38.6587 4.12996 39.9715 5.16381C41.3008 6.19765 42.0638 7.66637 42.2608 9.56996H37.83C37.4854 8.01099 36.4269 7.2315 34.6546 7.2315C33.8013 7.2315 33.1449 7.3956 32.6854 7.72381C32.2423 8.05201 32.0208 8.49509 32.0208 9.05304C32.0208 9.46329 32.1602 9.80791 32.4392 10.0869C32.7182 10.3659 33.1613 10.5956 33.7684 10.7761L37.8792 12.0069C39.4546 12.4664 40.6033 13.0982 41.3254 13.9023C42.0474 14.7064 42.4084 15.7566 42.4084 17.053C42.4084 18.2018 42.1049 19.211 41.4977 20.0807C40.9069 20.9341 40.07 21.6069 38.9869 22.0992C37.9038 22.5751 36.632 22.813 35.1715 22.813Z" fill="#E2E2E2"/>
</svg>
