<svg width="802" height="149" viewBox="0 0 802 149" fill="none" xmlns="http://www.w3.org/2000/svg">
<rect width="140" height="140" rx="32" fill="#075056"/>
<path d="M57.1015 55.9775H100.247V118H82.9892V86.3887L55.8759 113.502L43.6728 101.298L71.7353 73.2363H39.8427V22H57.1015V55.9775Z" fill="#E4EEF0"/>
<path d="M761.496 101.792V65.99H753.882V51.086L756.96 50.438C763.926 48.98 766.518 45.416 768.138 38.774L770.406 29.378H785.472V48.98H799.566V65.99H785.472V96.608C785.472 100.82 787.416 102.926 791.304 102.926C794.22 102.926 796.812 102.116 801.186 100.334V116.858C795.516 120.584 789.36 122.366 782.07 122.366C770.892 122.366 761.496 116.696 761.496 101.792Z" fill="#075056"/>
<path d="M717.864 103.898C724.668 103.898 727.26 97.904 727.26 90.614V79.598C727.26 72.308 724.668 66.314 717.864 66.314C711.06 66.314 708.468 72.308 708.468 79.598V90.614C708.468 97.904 711.06 103.898 717.864 103.898ZM717.864 122.69C696.804 122.69 684.33 108.11 684.33 86.24V83.972C684.33 62.102 696.804 47.522 717.864 47.522C738.924 47.522 751.398 62.102 751.398 83.972V86.24C751.398 108.11 738.924 122.69 717.864 122.69Z" fill="#075056"/>
<path d="M645.881 103.898C652.685 103.898 655.277 97.904 655.277 90.614V79.598C655.277 72.308 652.685 66.314 645.881 66.314C639.077 66.314 636.485 72.308 636.485 79.598V90.614C636.485 97.904 639.077 103.898 645.881 103.898ZM645.881 122.69C624.821 122.69 612.347 108.11 612.347 86.24V83.972C612.347 62.102 624.821 47.522 645.881 47.522C666.941 47.522 679.415 62.102 679.415 83.972V86.24C679.415 108.11 666.941 122.69 645.881 122.69Z" fill="#075056"/>
<path d="M583.401 89.156V81.056C583.401 71.66 579.999 66.8 573.357 66.8C566.715 66.8 563.313 71.984 563.313 79.436V90.776C563.313 98.228 566.715 103.412 573.357 103.412C579.999 103.412 583.401 98.552 583.401 89.156ZM563.313 113.132L560.721 121.232H539.013V19.172H563.313V57.08C567.201 51.086 573.195 47.522 582.429 47.522C599.439 47.522 607.539 60.806 607.539 82.19V88.022C607.539 109.406 599.439 122.69 582.429 122.69C573.195 122.69 567.201 119.126 563.313 113.132Z" fill="#075056"/>
<path d="M526.624 71.174V73.28C526.624 88.184 513.502 96.932 496.33 96.932C492.118 96.932 488.068 96.446 484.504 95.474C484.18 96.122 484.018 96.77 484.018 97.58C484.018 100.172 485.8 102.116 489.364 102.116H510.262C526.138 102.116 533.428 109.73 533.428 122.69C533.428 140.672 517.066 148.61 495.196 148.61C476.728 148.61 461.662 143.912 461.662 131.114C461.662 124.634 466.36 119.612 473.812 118.802C468.952 117.02 465.226 112.16 465.226 105.356C465.226 98.876 468.628 94.502 475.108 90.938C469.438 86.888 466.036 80.894 466.036 73.28V71.174C466.036 56.27 479.158 47.522 496.33 47.522C504.106 47.522 511.072 49.304 516.418 52.706C520.144 47.198 526.624 43.472 533.104 43.472V61.778C530.674 61.778 527.758 62.102 525.004 62.75C525.976 65.342 526.624 68.096 526.624 71.174ZM482.074 127.388C482.074 131.276 486.448 133.382 495.196 133.382C505.888 133.382 511.72 131.6 511.72 127.226C511.72 123.986 509.452 122.69 506.05 122.69H487.744C483.856 122.69 482.074 124.472 482.074 127.388ZM489.364 71.336V73.118C489.364 78.464 491.632 81.704 496.33 81.704C501.028 81.704 503.296 78.464 503.296 73.118V71.336C503.296 65.99 501.028 62.75 496.33 62.75C491.632 62.75 489.364 65.99 489.364 71.336Z" fill="#075056"/>
<path d="M415.393 82.19V121.232H391.093V48.98H415.393V57.242C418.633 51.896 425.437 47.522 434.995 47.522C450.709 47.522 457.351 57.89 457.351 71.984V121.232H433.051V80.084C433.051 72.794 431.755 67.61 424.951 67.61C417.337 67.61 415.393 74.252 415.393 82.19Z" fill="#075056"/>
<path d="M355.814 48.98H380.114V121.232H355.814V48.98ZM355.814 41.69V19.172H380.114V41.69H355.814Z" fill="#075056"/>
<path d="M350.301 49.466L349.329 71.66C346.089 70.688 343.659 70.364 340.743 70.364C331.185 70.364 326.325 75.224 326.325 86.402V121.232H302.025V48.98H326.325V60.32C329.241 51.41 335.397 48.008 343.335 48.008C346.251 48.008 348.519 48.494 350.301 49.466Z" fill="#075056"/>
<path d="M254.93 101.792V65.99H247.316V51.086L250.394 50.438C257.36 48.98 259.952 45.416 261.572 38.774L263.84 29.378H278.906V48.98H293V65.99H278.906V96.608C278.906 100.82 280.85 102.926 284.738 102.926C287.654 102.926 290.246 102.116 294.62 100.334V116.858C288.95 120.584 282.794 122.366 275.504 122.366C264.326 122.366 254.93 116.696 254.93 101.792Z" fill="#075056"/>
<path d="M170.972 49.466C170.972 30.512 184.58 17.39 205.964 17.39C230.264 17.39 242.9 31.484 242.9 51.896V54.488H220.22V52.868C220.22 43.148 215.684 36.83 205.802 36.83C199.16 36.83 195.11 40.718 195.11 46.55C195.11 51.248 197.864 54.164 203.21 55.946L218.276 60.968C234.8 66.476 244.52 74.576 244.52 90.938C244.52 111.836 229.13 123.014 208.556 123.014C183.932 123.014 170 109.406 170 88.67V86.402H192.842V87.86C192.842 97.58 198.188 103.574 208.394 103.574C215.36 103.574 219.734 100.01 219.734 94.178C219.734 88.832 216.818 86.24 210.662 84.296L195.11 79.436C181.34 75.062 170.972 67.286 170.972 49.466Z" fill="#075056"/>
</svg>
